<svg xmlns="http://www.w3.org/2000/svg" width="49" height="55" fill="none" viewBox="0 0 49 55">
  <path fill="#000" d="M32.588 14.057c-.071-3.198-1.492-5.65-4.264-7.356-2.843-1.564-5.685-1.564-8.528 0-2.771 1.706-4.193 4.158-4.264 7.356.071 3.2 1.492 5.651 4.264 7.357 2.843 1.564 5.685 1.564 8.528 0 2.772-1.706 4.193-4.158 4.264-7.357Zm-22.173 0c0-2.487.604-4.762 1.813-6.823 1.208-2.062 2.878-3.732 5.01-5.011C19.37 1.014 21.644.41 24.06.41c2.416 0 4.69.604 6.822 1.813 2.132 1.279 3.802 2.95 5.01 5.01 1.209 2.062 1.813 4.337 1.813 6.824 0 2.488-.604 4.763-1.813 6.824-1.208 2.062-2.878 3.732-5.01 5.011-2.132 1.209-4.406 1.813-6.822 1.813-2.416 0-4.69-.604-6.822-1.813-2.132-1.279-3.802-2.95-5.01-5.01-1.209-2.062-1.813-4.337-1.813-6.825Zm-5.01 35.825h37.31c-.569-3.483-2.097-6.326-4.584-8.53-2.558-2.203-5.614-3.34-9.167-3.411h-9.807c-3.554.07-6.574 1.208-9.061 3.411-2.559 2.204-4.122 5.047-4.69 8.53Zm-5.223 1.92c.142-5.332 1.99-9.81 5.543-13.435 3.624-3.554 8.101-5.402 13.432-5.544h9.807c5.33.142 9.807 1.99 13.431 5.544 3.553 3.625 5.401 8.103 5.543 13.434 0 .924-.32 1.67-.96 2.24-.568.64-1.314.959-2.238.959H3.38c-.924 0-1.67-.32-2.239-.96-.64-.568-.96-1.315-.96-2.239Z"/>
</svg>
