<svg xmlns="http://www.w3.org/2000/svg" width="44" height="51" fill="none" viewBox="0 0 44 51">
  <path fill="#000" d="M29.63 13.367c-.065-2.908-1.357-5.137-3.878-6.688-2.585-1.422-5.17-1.422-7.754 0-2.52 1.551-3.813 3.78-3.878 6.688.065 2.909 1.357 5.138 3.878 6.689 2.584 1.422 5.17 1.422 7.754 0 2.52-1.551 3.813-3.78 3.878-6.689Zm-20.163 0c0-2.261.55-4.33 1.648-6.203 1.099-1.874 2.618-3.393 4.556-4.556C17.61 1.509 19.678.96 21.875.96s4.265.55 6.204 1.648c1.938 1.163 3.457 2.682 4.556 4.556 1.098 1.874 1.648 3.942 1.648 6.204 0 2.261-.55 4.33-1.648 6.203-1.099 1.874-2.618 3.393-4.556 4.556-1.939 1.099-4.007 1.648-6.204 1.648s-4.265-.55-6.204-1.648c-1.938-1.163-3.457-2.682-4.556-4.556-1.098-1.874-1.648-3.942-1.648-6.204Zm-4.555 32.57h33.926c-.517-3.166-1.906-5.751-4.168-7.755-2.326-2.003-5.105-3.037-8.336-3.101h-8.918c-3.231.064-5.978 1.098-8.24 3.101-2.326 2.004-3.747 4.589-4.264 7.755Zm-4.75 1.745c.13-4.847 1.81-8.918 5.04-12.214 3.296-3.23 7.367-4.911 12.214-5.04h8.918c4.847.129 8.918 1.81 12.214 5.04 3.23 3.296 4.91 7.367 5.04 12.214 0 .84-.29 1.519-.872 2.036-.517.581-1.196.872-2.036.872H3.07c-.84 0-1.519-.29-2.036-.872-.581-.517-.872-1.196-.872-2.036Z"/>
</svg>
