<svg xmlns="http://www.w3.org/2000/svg" width="49" height="56" fill="none" viewBox="0 0 49 56">
  <path fill="#000" d="M24.065 27.885c2.488 0 4.762-.604 6.824-1.813 2.061-1.208 3.732-2.878 5.011-5.01 1.208-2.133 1.813-4.408 1.813-6.825 0-2.416-.605-4.69-1.813-6.823-1.28-2.133-2.95-3.803-5.011-5.012C28.827 1.194 26.553.59 24.065.59c-2.488 0-4.762.604-6.824 1.812-2.061 1.209-3.732 2.88-5.01 5.012-1.21 2.132-1.813 4.407-1.813 6.823 0 2.417.604 4.692 1.812 6.824 1.28 2.133 2.95 3.803 5.011 5.011 2.062 1.209 4.336 1.813 6.824 1.813Zm-4.905 5.118c-5.33.142-9.809 1.99-13.434 5.544C2.172 42.172.324 46.65.182 51.981c0 .924.32 1.67.96 2.24.568.64 1.314.959 2.239.959h41.368c.925 0 1.67-.32 2.24-.96.64-.568.96-1.315.96-2.239-.143-5.33-1.991-9.809-5.545-13.434-3.625-3.554-8.103-5.402-13.434-5.544h-9.81Z"/>
</svg>
