<svg xmlns="http://www.w3.org/2000/svg" width="44" height="50" fill="none" viewBox="0 0 44 50">
  <path fill="#000" d="M21.875 24.955c2.262 0 4.33-.55 6.204-1.648 1.874-1.098 3.392-2.617 4.556-4.556 1.098-1.938 1.648-4.006 1.648-6.204 0-2.197-.55-4.265-1.648-6.203-1.164-1.939-2.682-3.458-4.556-4.556C26.205.689 24.137.14 21.875.14c-2.262 0-4.33.55-6.204 1.648-1.874 1.098-3.392 2.617-4.556 4.556-1.098 1.938-1.648 4.006-1.648 6.203 0 2.198.55 4.266 1.648 6.204 1.164 1.939 2.682 3.458 4.556 4.556 1.874 1.099 3.942 1.648 6.204 1.648Zm-4.459 4.653c-4.847.13-8.918 1.81-12.214 5.04-3.23 3.296-4.91 7.367-5.04 12.214 0 .84.29 1.519.872 2.036.517.581 1.196.872 2.036.872h37.61c.84 0 1.519-.29 2.036-.872.581-.517.872-1.196.872-2.036-.13-4.847-1.81-8.918-5.04-12.214-3.296-3.23-7.367-4.91-12.214-5.04h-8.918Z"/>
</svg>
