<svg width="29" height="35" viewBox="0 0 29 35" fill="none" xmlns="http://www.w3.org/2000/svg">
<path d="M17.5 2.47656H5.5C4.70435 2.47656 3.94129 2.79263 3.37868 3.35524C2.81607 3.91785 2.5 4.68091 2.5 5.47656V29.4766C2.5 30.2722 2.81607 31.0353 3.37868 31.5979C3.94129 32.1605 4.70435 32.4766 5.5 32.4766H23.5C24.2956 32.4766 25.0587 32.1605 25.6213 31.5979C26.1839 31.0353 26.5 30.2722 26.5 29.4766V11.4766M17.5 2.47656L26.5 11.4766M17.5 2.47656V11.4766H26.5M20.5 18.9766H8.5M20.5 24.9766H8.5M11.5 12.9766H8.5" stroke="black" stroke-width="4" stroke-linecap="round" stroke-linejoin="round"/>
</svg>
