<svg width="48" height="40" viewBox="0 0 48 40" fill="none" xmlns="http://www.w3.org/2000/svg">
<path d="M32.0087 27.9951L24.0087 19.9951M24.0087 19.9951L16.0087 27.9951M24.0087 19.9951V37.9951M40.7887 32.7751C42.7394 31.7116 44.2804 30.0288 45.1685 27.9923C46.0565 25.9558 46.2411 23.6815 45.6931 21.5285C45.1451 19.3754 43.8957 17.4661 42.1421 16.102C40.3884 14.7378 38.2304 13.9966 36.0087 13.9951H33.4887C32.8833 11.6536 31.755 9.47975 30.1886 7.63707C28.6222 5.79439 26.6584 4.33079 24.4449 3.3563C22.2314 2.38181 19.8258 1.9218 17.4089 2.01085C14.9921 2.0999 12.6268 2.73569 10.4911 3.87042C8.35528 5.00515 6.50453 6.60929 5.07795 8.56225C3.65137 10.5152 2.68609 12.7662 2.25467 15.1459C1.82325 17.5256 1.93692 19.9721 2.58714 22.3016C3.23735 24.6311 4.40719 26.7828 6.00871 28.5951" stroke="#1E1E1E" stroke-width="4" stroke-linecap="round" stroke-linejoin="round"/>
</svg>
