<?xml version="1.0" encoding="utf-8"?><!-- Uploaded to: SVG Repo, www.svgrepo.com, Generator: SVG Repo Mixer Tools -->
<svg width="800px" height="800px" viewBox="0 0 24 24" fill="none" xmlns="http://www.w3.org/2000/svg">
<path d="M7 6C7 4.89543 7.89543 4 9 4H15C16.1046 4 17 4.89543 17 6V8H7V6Z" stroke="#000000" stroke-width="2" stroke-linecap="round" stroke-linejoin="round"/>
<path d="M7 14H17V18C17 19.1046 16.1046 20 15 20H9C7.89543 20 7 19.1046 7 18V14Z" stroke="#000000" stroke-width="2" stroke-linecap="round" stroke-linejoin="round"/>
<path d="M18 17H21V10C21 8.89543 20.1046 8 19 8H5C3.89543 8 3 8.89543 3 10V17H6" stroke="#000000" stroke-width="2" stroke-linecap="round" stroke-linejoin="round"/>
<path d="M18 11L16 11" stroke="#000000" stroke-width="2" stroke-linecap="round" stroke-linejoin="round"/>
</svg>