<svg width="14" height="10" viewBox="0 0 14 10" fill="none" xmlns="http://www.w3.org/2000/svg">
<path d="M12.8564 0.362494C13.0321 0.557755 13.12 0.782306 13.12 1.03615C13.12 1.28999 13.0321 1.51454 12.8564 1.7098L5.35929 9.20783C5.16405 9.38357 4.93952 9.47144 4.68571 9.47144C4.4319 9.47144 4.20738 9.38357 4.01214 9.20783L0.263571 5.45882C0.0878571 5.26355 0 5.039 0 4.78516C0 4.53132 0.0878571 4.30677 0.263571 4.11151C0.45881 3.93578 0.683333 3.84791 0.937143 3.84791C1.19095 3.84791 1.41548 3.93578 1.61071 4.11151L4.68571 7.21617L11.5093 0.362494C11.7045 0.186759 11.929 0.0988913 12.1829 0.0988913C12.4367 0.0988913 12.6612 0.186759 12.8564 0.362494Z" fill="white"/>
</svg>
