<svg width="15" height="16" viewBox="0 0 15 16" fill="none" xmlns="http://www.w3.org/2000/svg">
<path d="M8.4375 3.59326V10.7124C8.4375 10.9858 8.34961 11.2104 8.17383 11.3862C7.99805 11.562 7.77344 11.6499 7.5 11.6499C7.22656 11.6499 7.00195 11.562 6.82617 11.3862C6.65039 11.2104 6.5625 10.9858 6.5625 10.7124V3.59326L4.42383 5.76123C4.22852 5.93701 4.00391 6.0249 3.75 6.0249C3.49609 6.0249 3.27148 5.93701 3.07617 5.76123C2.90039 5.56592 2.8125 5.34131 2.8125 5.0874C2.8125 4.8335 2.90039 4.60889 3.07617 4.41357L6.82617 0.663574C7.02148 0.487793 7.24609 0.399902 7.5 0.399902C7.75391 0.399902 7.97852 0.487793 8.17383 0.663574L11.9238 4.41357C12.0996 4.60889 12.1875 4.8335 12.1875 5.0874C12.1875 5.34131 12.0996 5.56592 11.9238 5.76123C11.7285 5.93701 11.5039 6.0249 11.25 6.0249C10.9961 6.0249 10.7715 5.93701 10.5762 5.76123L8.4375 3.59326ZM1.875 10.7124H5.625C5.64453 11.2397 5.83008 11.6792 6.18164 12.0308C6.5332 12.3823 6.97266 12.5679 7.5 12.5874C8.02734 12.5679 8.4668 12.3823 8.81836 12.0308C9.16992 11.6792 9.35547 11.2397 9.375 10.7124H13.125C13.6523 10.7319 14.0918 10.9175 14.4434 11.269C14.7949 11.6206 14.9805 12.0601 15 12.5874V13.5249C14.9805 14.0522 14.7949 14.4917 14.4434 14.8433C14.0918 15.1948 13.6523 15.3804 13.125 15.3999H1.875C1.34766 15.3804 0.908203 15.1948 0.556641 14.8433C0.205078 14.4917 0.0195312 14.0522 0 13.5249V12.5874C0.0195312 12.0601 0.205078 11.6206 0.556641 11.269C0.908203 10.9175 1.34766 10.7319 1.875 10.7124ZM12.6562 13.7593C13.0859 13.7202 13.3203 13.4858 13.3594 13.0562C13.3203 12.6265 13.0859 12.3921 12.6562 12.353C12.2266 12.3921 11.9922 12.6265 11.9531 13.0562C11.9922 13.4858 12.2266 13.7202 12.6562 13.7593Z" fill="white"/>
</svg>
