<svg width="15" height="16" viewBox="0 0 15 16" fill="none" xmlns="http://www.w3.org/2000/svg">
<path d="M12.0117 7.61293L12.3633 7.29087L11.3672 6.29542L9.55078 4.48018L8.55469 3.48473L8.20312 3.80679L7.55859 4.48018L1.72852 10.3065C1.41602 10.6188 1.19141 10.9799 1.05469 11.3898L0.0292974 14.9324C-0.0488276 15.1862 0.00976617 15.4107 0.205079 15.6058C0.400391 15.801 0.634766 15.8693 0.908204 15.8108L4.42383 14.7568C4.85352 14.6397 5.22461 14.425 5.53711 14.1127L11.3672 8.28633L12.0117 7.61293ZM4.6875 12.5316L4.42383 13.205C4.30664 13.3026 4.17969 13.3709 4.04297 13.41L1.72852 14.0834L2.40234 11.7997C2.46094 11.6631 2.5293 11.5362 2.60742 11.4191L3.28125 11.1556V12.0925C3.30078 12.3657 3.45703 12.5219 3.75 12.5609H4.6875V12.5316ZM10.6348 1.40599L10.1953 1.81588L9.55078 2.48927L9.19922 2.81133L10.1953 3.80679L12.0117 5.62203L13.0078 6.61748L13.3301 6.29542L14.0039 5.62203L14.4434 5.21213C14.7949 4.82176 14.9707 4.37283 14.9707 3.86534C14.9707 3.37737 14.7949 2.9382 14.4434 2.54783L13.2715 1.40599C12.9004 1.03513 12.4609 0.849704 11.9531 0.849704C11.4648 0.849704 11.0254 1.03513 10.6348 1.40599ZM9.22852 6.3247L5.00977 10.5407C4.79492 10.7164 4.58008 10.7164 4.36523 10.5407C4.16992 10.3065 4.16992 10.082 4.36523 9.86734L8.58398 5.6513C8.79883 5.47563 9.01367 5.47563 9.22852 5.6513C9.42383 5.86601 9.42383 6.09047 9.22852 6.3247Z" fill="white"/>
</svg>
