<svg width="17" height="15" viewBox="0 0 17 15" fill="none" xmlns="http://www.w3.org/2000/svg">
<path d="M2.46484 0.780324C1.91797 0.585011 1.47852 0.672902 1.14648 1.044C0.794922 1.43462 0.736328 1.89361 0.970703 2.42095L2.99219 6.17095C3.12891 6.42486 3.34375 6.57134 3.63672 6.6104L8.79297 7.25493C8.91016 7.27446 8.96875 7.34282 8.96875 7.46001C8.96875 7.5772 8.91016 7.64556 8.79297 7.66509L3.63672 8.30962C3.34375 8.34868 3.12891 8.49517 2.99219 8.74907L0.970703 12.5284C0.736328 13.0362 0.794922 13.4854 1.14648 13.876C1.47852 14.2471 1.91797 14.335 2.46484 14.1397L15.4141 8.544C15.8828 8.29009 16.1172 7.92876 16.1172 7.46001C16.1172 6.99126 15.8828 6.62993 15.4141 6.37603L2.46484 0.780324Z" fill="white"/>
</svg>
