<svg width="37" height="41" viewBox="0 0 37 41" fill="none" xmlns="http://www.w3.org/2000/svg">
<path d="M36.56 0.813728V14.8753L14.0615 40.186L0 26.1245L22.4985 0.813728H36.56ZM35.1538 14.1722V2.21988H23.2015L2.10923 26.1245L14.0615 38.0768L35.1538 14.1722ZM30.1444 11.272C30.1444 11.272 30.0126 11.4038 29.7489 11.6675C29.4853 11.9311 28.9433 12.063 28.1231 12.063C27.3028 12.063 26.629 11.7993 26.1017 11.272C25.5744 10.7447 25.3108 10.0709 25.3108 9.25065C25.3108 8.4304 25.5744 7.75661 26.1017 7.22931C26.629 6.702 27.3028 6.43834 28.1231 6.43834C28.9433 6.43834 29.6171 6.702 30.1444 7.22931C30.6717 7.75661 30.9354 8.4304 30.9354 9.25065C30.9354 10.0709 30.6717 10.7447 30.1444 11.272ZM29.5292 9.25065C29.5292 9.25065 29.5292 9.01629 29.5292 8.54757C29.5292 8.07886 29.0605 7.8445 28.1231 7.8445C27.1856 7.8445 26.7169 8.31322 26.7169 9.25065C26.7169 10.1881 27.1856 10.6568 28.1231 10.6568C29.0605 10.6568 29.5292 10.1881 29.5292 9.25065Z" fill="white"/>
</svg>
